<?xml version="1.0" encoding="UTF-8"?>
<svg xmlns="http://www.w3.org/2000/svg" xmlns:xlink="http://www.w3.org/1999/xlink" width="109px" height="57px" viewBox="0 0 109 57" version="1.1">
<g id="surface1">
<path style=" stroke:none;fill-rule:nonzero;fill:rgb(100%,92.941177%,31.764707%);fill-opacity:1;" d="M 77.527344 28.636719 C 77.585938 28.636719 77.648438 28.636719 77.710938 28.636719 C 77.917969 28.632812 78.125 28.632812 78.332031 28.632812 C 78.480469 28.632812 78.628906 28.632812 78.773438 28.632812 C 79.175781 28.632812 79.578125 28.632812 79.980469 28.632812 C 80.230469 28.632812 80.484375 28.632812 80.734375 28.628906 C 81.519531 28.628906 82.304688 28.628906 83.089844 28.628906 C 83.996094 28.628906 84.90625 28.625 85.8125 28.625 C 86.511719 28.625 87.214844 28.621094 87.914062 28.621094 C 88.332031 28.621094 88.75 28.621094 89.167969 28.621094 C 89.5625 28.621094 89.957031 28.621094 90.351562 28.621094 C 90.496094 28.621094 90.640625 28.621094 90.785156 28.621094 C 90.984375 28.617188 91.179688 28.617188 91.378906 28.621094 C 91.542969 28.621094 91.542969 28.621094 91.710938 28.617188 C 92.074219 28.648438 92.273438 28.714844 92.558594 28.832031 C 92.683594 28.964844 92.660156 29.066406 92.660156 29.214844 C 92.660156 29.304688 92.660156 29.304688 92.660156 29.398438 C 92.660156 29.46875 92.660156 29.535156 92.660156 29.605469 C 92.660156 29.679688 92.660156 29.75 92.660156 29.824219 C 92.660156 30.019531 92.660156 30.214844 92.660156 30.410156 C 92.660156 30.59375 92.660156 30.777344 92.660156 30.960938 C 92.65625 31.496094 92.65625 32.03125 92.65625 32.566406 C 92.652344 33.765625 92.652344 34.960938 92.648438 36.195312 C 87.253906 36.195312 81.859375 36.195312 76.300781 36.195312 C 76.289062 35 76.28125 33.804688 76.273438 32.574219 C 76.265625 32.199219 76.261719 31.820312 76.257812 31.433594 C 76.257812 30.972656 76.257812 30.972656 76.257812 30.757812 C 76.257812 30.605469 76.253906 30.457031 76.253906 30.304688 C 76.25 30.113281 76.246094 29.921875 76.25 29.730469 C 76.25 29.660156 76.246094 29.589844 76.246094 29.519531 C 76.242188 29.421875 76.246094 29.328125 76.246094 29.230469 C 76.246094 29.179688 76.246094 29.125 76.242188 29.070312 C 76.316406 28.882812 76.476562 28.8125 76.753906 28.691406 C 77.015625 28.621094 77.234375 28.636719 77.527344 28.636719 Z M 77.027344 29.070312 C 77.027344 29.257812 77.027344 29.445312 77.027344 29.640625 C 81.941406 29.640625 86.859375 29.640625 91.921875 29.640625 C 91.921875 29.453125 91.921875 29.265625 91.921875 29.070312 C 91.757812 28.984375 91.488281 29.015625 91.261719 29.015625 C 91.203125 29.015625 91.144531 29.015625 91.082031 29.015625 C 90.878906 29.015625 90.675781 29.015625 90.472656 29.015625 C 90.328125 29.015625 90.183594 29.015625 90.039062 29.015625 C 89.644531 29.015625 89.25 29.015625 88.855469 29.015625 C 88.441406 29.015625 88.03125 29.015625 87.621094 29.015625 C 86.925781 29.015625 86.234375 29.015625 85.542969 29.015625 C 84.742188 29.015625 83.941406 29.015625 83.140625 29.015625 C 82.453125 29.015625 81.769531 29.015625 81.082031 29.015625 C 80.671875 29.015625 80.261719 29.015625 79.847656 29.015625 C 79.464844 29.015625 79.078125 29.015625 78.691406 29.015625 C 78.550781 29.015625 78.40625 29.015625 78.265625 29.015625 C 78.074219 29.015625 77.878906 29.015625 77.6875 29.015625 C 77.578125 29.015625 77.46875 29.015625 77.359375 29.015625 C 77.125 29.007812 77.125 29.007812 77.027344 29.070312 Z M 77.027344 30.066406 C 77.027344 31.964844 77.027344 33.859375 77.027344 35.816406 C 81.941406 35.816406 86.859375 35.816406 91.921875 35.816406 C 91.921875 33.917969 91.921875 32.023438 91.921875 30.066406 C 87.007812 30.066406 82.089844 30.066406 77.027344 30.066406 Z M 77.027344 30.066406 "/>
<path style=" stroke:none;fill-rule:nonzero;fill:rgb(100%,92.941177%,32.156864%);fill-opacity:1;" d="M 76.300781 26.363281 C 81.695312 26.363281 87.089844 26.363281 92.648438 26.363281 C 92.648438 26.597656 92.648438 26.832031 92.648438 27.074219 C 87.253906 27.074219 81.859375 27.074219 76.300781 27.074219 C 76.300781 26.839844 76.300781 26.605469 76.300781 26.363281 Z M 76.300781 26.363281 "/>
<path style=" stroke:none;fill-rule:nonzero;fill:rgb(100%,92.941177%,31.764707%);fill-opacity:1;" d="M 26.589844 21.929688 C 26.957031 21.949219 27.085938 22 27.339844 22.136719 C 27.515625 22.28125 27.546875 22.398438 27.550781 22.570312 C 27.554688 22.617188 27.554688 22.664062 27.558594 22.714844 C 27.558594 22.769531 27.558594 22.820312 27.558594 22.875 C 27.5625 22.925781 27.5625 22.980469 27.566406 23.035156 C 27.570312 23.207031 27.574219 23.378906 27.578125 23.546875 C 27.582031 23.664062 27.585938 23.78125 27.589844 23.894531 C 27.597656 24.179688 27.605469 24.464844 27.613281 24.746094 C 27.660156 24.722656 27.710938 24.703125 27.761719 24.679688 C 27.824219 24.648438 27.890625 24.617188 27.957031 24.585938 C 28.019531 24.558594 28.085938 24.527344 28.148438 24.496094 C 28.773438 24.230469 29.566406 24.222656 30.339844 24.257812 C 31.023438 24.3125 31.652344 24.53125 32.113281 24.796875 C 32.71875 25.226562 32.859375 25.648438 32.789062 26.171875 C 32.613281 26.679688 32.136719 27.0625 31.335938 27.359375 C 30.550781 27.605469 29.738281 27.636719 28.847656 27.539062 C 28.070312 27.417969 27.488281 27.121094 27.085938 26.757812 C 26.636719 26.308594 26.671875 25.847656 26.683594 25.355469 C 26.6875 25.277344 26.6875 25.199219 26.6875 25.121094 C 26.6875 24.914062 26.691406 24.707031 26.695312 24.503906 C 26.703125 24.171875 26.707031 23.84375 26.710938 23.511719 C 26.714844 23.398438 26.714844 23.28125 26.71875 23.167969 C 26.71875 23.097656 26.71875 23.027344 26.722656 22.957031 C 26.722656 22.894531 26.722656 22.832031 26.726562 22.769531 C 26.707031 22.613281 26.660156 22.511719 26.523438 22.371094 C 26.339844 22.285156 26.339844 22.285156 26.160156 22.230469 C 26.257812 21.949219 26.257812 21.949219 26.589844 21.929688 Z M 28.25 24.984375 C 27.777344 25.316406 27.523438 25.660156 27.613281 26.078125 C 27.753906 26.5 28.140625 26.800781 28.8125 27.046875 C 29.292969 27.1875 29.746094 27.214844 30.285156 27.140625 C 30.933594 27.019531 31.378906 26.851562 31.730469 26.539062 C 32.03125 26.199219 32.121094 25.832031 31.886719 25.46875 C 31.574219 25.121094 31.132812 24.84375 30.429688 24.699219 C 29.628906 24.597656 28.835938 24.667969 28.25 24.984375 Z M 28.25 24.984375 "/>
<path style=" stroke:none;fill-rule:nonzero;fill:rgb(100%,92.941177%,31.764707%);fill-opacity:1;" d="M 20.527344 22.46875 C 20.707031 22.46875 20.886719 22.46875 21.074219 22.46875 C 21.652344 23.210938 22.203125 23.964844 22.75 24.714844 C 22.871094 24.882812 22.992188 25.050781 23.113281 25.21875 C 23.195312 25.328125 23.273438 25.4375 23.355469 25.550781 C 23.546875 25.816406 23.746094 26.082031 23.949219 26.34375 C 23.988281 26.394531 24.027344 26.445312 24.066406 26.496094 C 24.136719 26.589844 24.210938 26.683594 24.28125 26.777344 C 24.449219 26.992188 24.582031 27.167969 24.523438 27.40625 C 24.433594 27.453125 24.433594 27.453125 24.171875 27.472656 C 24.078125 27.46875 23.984375 27.460938 23.890625 27.453125 C 23.664062 27.292969 23.527344 27.113281 23.390625 26.925781 C 23.351562 26.871094 23.3125 26.820312 23.269531 26.761719 C 23.230469 26.707031 23.1875 26.648438 23.144531 26.589844 C 23.101562 26.535156 23.0625 26.476562 23.019531 26.417969 C 22.707031 25.996094 22.707031 25.996094 22.707031 25.886719 C 21.417969 25.902344 20.128906 25.917969 18.800781 25.933594 C 18.480469 26.363281 18.480469 26.363281 18.160156 26.792969 C 18.121094 26.847656 18.082031 26.898438 18.039062 26.957031 C 18 27.011719 17.957031 27.066406 17.914062 27.121094 C 17.824219 27.234375 17.730469 27.34375 17.621094 27.453125 C 17.410156 27.453125 17.203125 27.453125 16.984375 27.453125 C 16.824219 27.167969 17 26.976562 17.207031 26.714844 C 17.242188 26.671875 17.277344 26.625 17.3125 26.582031 C 17.425781 26.433594 17.542969 26.285156 17.65625 26.136719 C 17.738281 26.035156 17.816406 25.933594 17.894531 25.828125 C 18.105469 25.558594 18.316406 25.289062 18.527344 25.019531 C 18.738281 24.746094 18.953125 24.46875 19.164062 24.195312 C 19.476562 23.792969 19.789062 23.390625 20.101562 22.992188 C 20.132812 22.949219 20.167969 22.90625 20.199219 22.863281 C 20.230469 22.824219 20.261719 22.785156 20.292969 22.746094 C 20.332031 22.695312 20.332031 22.695312 20.371094 22.644531 C 20.417969 22.585938 20.472656 22.527344 20.527344 22.46875 Z M 20.710938 23.273438 C 20.679688 23.316406 20.648438 23.359375 20.617188 23.402344 C 20.5 23.558594 20.386719 23.714844 20.269531 23.871094 C 20.21875 23.941406 20.167969 24.007812 20.121094 24.074219 C 20.046875 24.171875 19.976562 24.273438 19.902344 24.371094 C 19.878906 24.402344 19.855469 24.433594 19.832031 24.46875 C 19.644531 24.714844 19.449219 24.960938 19.246094 25.207031 C 19.148438 25.320312 19.148438 25.320312 19.164062 25.460938 C 20.214844 25.460938 21.265625 25.460938 22.34375 25.460938 C 22.285156 25.300781 22.230469 25.175781 22.121094 25.027344 C 22.082031 24.972656 22.082031 24.972656 22.039062 24.914062 C 22.011719 24.875 21.984375 24.835938 21.953125 24.796875 C 21.925781 24.757812 21.894531 24.714844 21.863281 24.675781 C 21.800781 24.589844 21.738281 24.503906 21.675781 24.417969 C 21.578125 24.289062 21.484375 24.15625 21.386719 24.023438 C 21.328125 23.941406 21.265625 23.859375 21.203125 23.777344 C 21.160156 23.71875 21.160156 23.71875 21.117188 23.65625 C 21.089844 23.621094 21.0625 23.585938 21.035156 23.546875 C 21.011719 23.515625 20.988281 23.484375 20.964844 23.449219 C 20.894531 23.359375 20.894531 23.359375 20.710938 23.273438 Z M 20.710938 23.273438 "/>
<path style=" stroke:none;fill-rule:nonzero;fill:rgb(100%,92.941177%,31.764707%);fill-opacity:1;" d="M 67.761719 21.945312 C 68.125 22.0625 68.269531 22.164062 68.398438 22.371094 C 68.421875 22.507812 68.421875 22.507812 68.425781 22.65625 C 68.429688 22.710938 68.429688 22.769531 68.433594 22.828125 C 68.433594 22.886719 68.433594 22.945312 68.433594 23.007812 C 68.4375 23.070312 68.4375 23.132812 68.441406 23.195312 C 68.445312 23.359375 68.449219 23.523438 68.453125 23.6875 C 68.457031 23.855469 68.460938 24.023438 68.464844 24.191406 C 68.472656 24.519531 68.480469 24.847656 68.488281 25.175781 C 68.851562 25.078125 69.214844 24.976562 69.578125 24.878906 C 69.683594 24.851562 69.785156 24.824219 69.890625 24.796875 C 70.507812 24.628906 71.121094 24.453125 71.71875 24.265625 C 71.941406 24.226562 71.941406 24.226562 72.195312 24.265625 C 72.292969 24.292969 72.292969 24.292969 72.394531 24.320312 C 72.394531 24.414062 72.394531 24.507812 72.394531 24.605469 C 72.285156 24.636719 72.285156 24.636719 72.171875 24.667969 C 71.894531 24.746094 71.617188 24.820312 71.34375 24.898438 C 71.222656 24.933594 71.105469 24.964844 70.984375 25 C 70.8125 25.046875 70.640625 25.09375 70.46875 25.144531 C 70.367188 25.171875 70.261719 25.199219 70.15625 25.230469 C 69.9375 25.292969 69.722656 25.355469 69.503906 25.421875 C 69.214844 25.507812 69.214844 25.507812 69.035156 25.507812 C 69.71875 25.871094 70.433594 26.21875 71.191406 26.539062 C 71.269531 26.574219 71.351562 26.609375 71.433594 26.644531 C 71.589844 26.710938 71.75 26.777344 71.910156 26.84375 C 71.984375 26.875 72.0625 26.90625 72.140625 26.941406 C 72.207031 26.96875 72.273438 26.996094 72.339844 27.027344 C 72.484375 27.121094 72.484375 27.121094 72.519531 27.269531 C 72.484375 27.40625 72.484375 27.40625 72.304688 27.503906 C 71.894531 27.492188 71.699219 27.402344 71.410156 27.257812 C 71.332031 27.21875 71.253906 27.179688 71.171875 27.140625 C 71.09375 27.105469 71.019531 27.066406 70.941406 27.027344 C 70.820312 26.972656 70.699219 26.917969 70.578125 26.859375 C 70.234375 26.703125 69.894531 26.546875 69.558594 26.386719 C 69.203125 26.21875 68.847656 26.054688 68.488281 25.886719 C 68.484375 25.933594 68.476562 25.980469 68.472656 26.027344 C 68.453125 26.195312 68.433594 26.363281 68.414062 26.535156 C 68.40625 26.609375 68.398438 26.679688 68.390625 26.753906 C 68.378906 26.859375 68.367188 26.964844 68.355469 27.070312 C 68.351562 27.101562 68.347656 27.136719 68.34375 27.171875 C 68.316406 27.402344 68.316406 27.402344 68.214844 27.453125 C 67.941406 27.460938 67.941406 27.460938 67.671875 27.453125 C 67.578125 27.40625 67.578125 27.40625 67.570312 27.226562 C 67.570312 27.140625 67.574219 27.058594 67.574219 26.976562 C 67.574219 26.929688 67.574219 26.886719 67.574219 26.839844 C 67.578125 26.738281 67.578125 26.640625 67.578125 26.542969 C 67.582031 26.386719 67.582031 26.230469 67.582031 26.070312 C 67.585938 25.628906 67.589844 25.183594 67.59375 24.738281 C 67.597656 24.464844 67.601562 24.191406 67.601562 23.921875 C 67.601562 23.816406 67.605469 23.714844 67.605469 23.609375 C 67.609375 23.464844 67.609375 23.320312 67.609375 23.171875 C 67.609375 23.132812 67.613281 23.089844 67.613281 23.042969 C 67.609375 22.785156 67.542969 22.601562 67.308594 22.371094 C 67.257812 22.347656 67.207031 22.320312 67.152344 22.296875 C 67.035156 22.230469 67.035156 22.230469 67.019531 22.101562 C 67.023438 22.066406 67.027344 22.03125 67.035156 21.992188 C 67.292969 21.925781 67.472656 21.929688 67.761719 21.945312 Z M 67.761719 21.945312 "/>
<path style=" stroke:none;fill-rule:nonzero;fill:rgb(100%,92.941177%,31.764707%);fill-opacity:1;" d="M 53.046875 21.945312 C 53.367188 22.050781 53.539062 22.144531 53.683594 22.324219 C 53.855469 22.789062 53.785156 23.289062 53.777344 23.757812 C 53.777344 23.839844 53.777344 23.921875 53.777344 24.003906 C 53.777344 24.207031 53.773438 24.40625 53.773438 24.605469 C 53.84375 24.574219 53.914062 24.542969 53.988281 24.511719 C 54.464844 24.316406 54.964844 24.246094 55.5625 24.257812 C 56.242188 24.300781 56.769531 24.429688 57.226562 24.699219 C 57.746094 25.082031 57.644531 25.570312 57.644531 26.019531 C 57.648438 26.136719 57.648438 26.257812 57.652344 26.378906 C 57.652344 26.453125 57.652344 26.527344 57.652344 26.601562 C 57.65625 26.796875 57.683594 26.949219 57.859375 27.121094 C 58.042969 27.207031 58.042969 27.207031 58.222656 27.265625 C 58.195312 27.34375 58.164062 27.421875 58.132812 27.503906 C 57.847656 27.542969 57.847656 27.542969 57.496094 27.550781 C 57.070312 27.414062 56.941406 27.332031 56.808594 27.074219 C 56.742188 26.910156 56.746094 26.746094 56.746094 26.574219 C 56.746094 26.496094 56.742188 26.417969 56.742188 26.34375 C 56.738281 26.222656 56.738281 26.101562 56.734375 25.980469 C 56.734375 25.863281 56.730469 25.746094 56.730469 25.628906 C 56.730469 25.59375 56.730469 25.554688 56.730469 25.519531 C 56.722656 25.257812 56.601562 25.105469 56.316406 24.890625 C 55.855469 24.707031 55.328125 24.710938 54.773438 24.746094 C 54.328125 24.859375 54.105469 25 53.863281 25.222656 C 53.785156 25.355469 53.757812 25.476562 53.75 25.617188 C 53.746094 25.675781 53.746094 25.675781 53.738281 25.734375 C 53.738281 25.777344 53.734375 25.820312 53.730469 25.863281 C 53.722656 25.953125 53.71875 26.042969 53.710938 26.132812 C 53.699219 26.273438 53.6875 26.417969 53.679688 26.558594 C 53.667969 26.695312 53.65625 26.832031 53.644531 26.96875 C 53.644531 27.011719 53.640625 27.054688 53.636719 27.097656 C 53.632812 27.136719 53.632812 27.175781 53.628906 27.214844 C 53.625 27.25 53.621094 27.285156 53.621094 27.320312 C 53.589844 27.40625 53.589844 27.40625 53.410156 27.503906 C 53.175781 27.511719 53.175781 27.511719 52.957031 27.503906 C 52.863281 27.453125 52.863281 27.453125 52.855469 27.265625 C 52.855469 27.179688 52.859375 27.09375 52.859375 27.007812 C 52.859375 26.960938 52.859375 26.914062 52.859375 26.867188 C 52.859375 26.765625 52.863281 26.664062 52.863281 26.558594 C 52.867188 26.398438 52.867188 26.238281 52.867188 26.074219 C 52.871094 25.613281 52.875 25.15625 52.878906 24.695312 C 52.882812 24.414062 52.886719 24.132812 52.886719 23.851562 C 52.886719 23.746094 52.890625 23.636719 52.890625 23.53125 C 52.894531 23.382812 52.894531 23.230469 52.894531 23.082031 C 52.894531 23.015625 52.894531 23.015625 52.898438 22.945312 C 52.898438 22.714844 52.878906 22.558594 52.59375 22.371094 C 52.542969 22.347656 52.492188 22.324219 52.4375 22.300781 C 52.320312 22.230469 52.320312 22.230469 52.304688 22.101562 C 52.308594 22.066406 52.3125 22.03125 52.320312 21.992188 C 52.578125 21.925781 52.757812 21.929688 53.046875 21.945312 Z M 53.046875 21.945312 "/>
<path style=" stroke:none;fill-rule:nonzero;fill:rgb(100%,92.941177%,31.764707%);fill-opacity:1;" d="M 35.242188 21.945312 C 35.554688 22.046875 35.761719 22.140625 35.878906 22.324219 C 35.960938 22.605469 35.980469 22.875 35.980469 23.15625 C 35.980469 23.199219 35.980469 23.242188 35.976562 23.285156 C 35.976562 23.414062 35.976562 23.546875 35.976562 23.679688 C 35.976562 23.769531 35.976562 23.859375 35.972656 23.949219 C 35.972656 24.167969 35.972656 24.386719 35.96875 24.605469 C 36.042969 24.574219 36.113281 24.542969 36.1875 24.511719 C 36.660156 24.316406 37.160156 24.246094 37.761719 24.257812 C 38.441406 24.300781 38.964844 24.429688 39.421875 24.699219 C 39.953125 25.085938 39.839844 25.59375 39.839844 26.042969 C 39.84375 26.167969 39.84375 26.292969 39.847656 26.417969 C 39.851562 26.492188 39.851562 26.570312 39.851562 26.648438 C 39.855469 26.898438 39.855469 26.898438 40.058594 27.121094 C 40.242188 27.203125 40.242188 27.203125 40.421875 27.265625 C 40.390625 27.34375 40.359375 27.421875 40.328125 27.503906 C 40.046875 27.542969 40.046875 27.542969 39.695312 27.550781 C 39.265625 27.414062 39.140625 27.332031 39.003906 27.074219 C 38.941406 26.910156 38.941406 26.746094 38.941406 26.574219 C 38.941406 26.496094 38.9375 26.417969 38.9375 26.34375 C 38.933594 26.222656 38.933594 26.101562 38.933594 25.980469 C 38.933594 25.863281 38.929688 25.746094 38.925781 25.628906 C 38.925781 25.59375 38.925781 25.554688 38.925781 25.519531 C 38.917969 25.257812 38.796875 25.105469 38.511719 24.890625 C 38.054688 24.707031 37.523438 24.710938 36.96875 24.746094 C 36.523438 24.859375 36.304688 25 36.0625 25.222656 C 35.980469 25.351562 35.957031 25.433594 35.945312 25.566406 C 35.941406 25.628906 35.941406 25.628906 35.9375 25.691406 C 35.933594 25.753906 35.933594 25.753906 35.929688 25.824219 C 35.921875 25.914062 35.914062 26.007812 35.90625 26.097656 C 35.894531 26.246094 35.886719 26.390625 35.875 26.535156 C 35.863281 26.675781 35.855469 26.816406 35.84375 26.957031 C 35.839844 27 35.835938 27.042969 35.835938 27.089844 C 35.832031 27.128906 35.828125 27.167969 35.824219 27.210938 C 35.820312 27.246094 35.820312 27.28125 35.816406 27.320312 C 35.789062 27.40625 35.789062 27.40625 35.605469 27.503906 C 35.367188 27.507812 35.367188 27.507812 35.152344 27.503906 C 34.96875 27.304688 34.949219 27.148438 34.957031 26.929688 C 34.960938 26.894531 34.960938 26.863281 34.960938 26.828125 C 34.964844 26.71875 34.96875 26.609375 34.972656 26.5 C 34.976562 26.425781 34.976562 26.347656 34.980469 26.269531 C 34.984375 26.066406 34.992188 25.863281 35 25.660156 C 35.007812 25.457031 35.015625 25.253906 35.019531 25.054688 C 35.023438 24.996094 35.023438 24.996094 35.023438 24.933594 C 35.035156 24.625 35.042969 24.320312 35.050781 24.011719 C 35.058594 23.847656 35.0625 23.683594 35.070312 23.519531 C 35.074219 23.367188 35.078125 23.210938 35.082031 23.054688 C 35.085938 23.011719 35.085938 22.96875 35.089844 22.925781 C 35.09375 22.699219 35.066406 22.554688 34.789062 22.371094 C 34.738281 22.347656 34.6875 22.324219 34.636719 22.300781 C 34.515625 22.230469 34.515625 22.230469 34.5 22.101562 C 34.503906 22.066406 34.511719 22.03125 34.515625 21.992188 C 34.777344 21.925781 34.957031 21.929688 35.242188 21.945312 Z M 35.242188 21.945312 "/>
<path style=" stroke:none;fill-rule:nonzero;fill:rgb(100%,92.941177%,32.156864%);fill-opacity:1;" d="M 64.429688 24.5 C 64.78125 24.648438 64.984375 24.808594 65.128906 25.03125 C 65.164062 25.28125 65.117188 25.4375 64.855469 25.648438 C 64.328125 25.925781 63.742188 26.046875 62.996094 26.050781 C 62.929688 26.050781 62.863281 26.050781 62.792969 26.050781 C 62.722656 26.050781 62.652344 26.050781 62.578125 26.050781 C 61.835938 26.039062 61.121094 25.964844 60.496094 25.746094 C 60.523438 26.128906 60.59375 26.484375 61.09375 26.78125 C 61.710938 27.074219 62.339844 27.097656 63.148438 27.089844 C 63.65625 27.066406 64.179688 27.003906 64.542969 26.808594 C 64.671875 26.742188 64.671875 26.742188 64.960938 26.734375 C 65.089844 26.738281 65.089844 26.738281 65.21875 26.742188 C 65.308594 26.863281 65.308594 26.863281 65.308594 27.027344 C 64.914062 27.300781 64.386719 27.425781 63.765625 27.503906 C 63.679688 27.511719 63.59375 27.523438 63.503906 27.535156 C 62.453125 27.589844 61.558594 27.535156 60.679688 27.207031 C 60.078125 26.929688 59.738281 26.546875 59.648438 26.136719 C 59.609375 25.652344 59.824219 25.15625 60.425781 24.78125 C 61.554688 24.207031 63.058594 24.109375 64.429688 24.5 Z M 60.984375 25.117188 C 60.910156 25.167969 60.839844 25.21875 60.765625 25.269531 C 61.15625 25.507812 61.640625 25.601562 62.222656 25.648438 C 62.914062 25.675781 63.628906 25.6875 64.191406 25.441406 C 64.332031 25.363281 64.332031 25.363281 64.351562 25.226562 C 64.300781 25.039062 64.207031 24.972656 63.945312 24.84375 C 62.949219 24.527344 61.730469 24.667969 60.984375 25.117188 Z M 60.984375 25.117188 "/>
<path style=" stroke:none;fill-rule:nonzero;fill:rgb(100%,92.941177%,31.764707%);fill-opacity:1;" d="M 50.230469 24.605469 C 50.417969 24.71875 50.488281 24.792969 50.59375 24.9375 C 50.570312 25.078125 50.570312 25.078125 50.503906 25.175781 C 50.304688 25.214844 50.304688 25.214844 50.050781 25.222656 C 49.792969 25.113281 49.792969 25.113281 49.59375 24.984375 C 49.59375 24.953125 49.59375 24.921875 49.59375 24.890625 C 49.53125 24.875 49.464844 24.863281 49.394531 24.847656 C 49.140625 24.796875 49.140625 24.796875 48.941406 24.742188 C 48.4375 24.660156 47.949219 24.664062 47.460938 24.765625 C 47.230469 24.839844 47.230469 24.839844 47.050781 24.9375 C 47.007812 25.074219 47.007812 25.074219 47.050781 25.222656 C 47.304688 25.382812 47.550781 25.453125 47.914062 25.527344 C 48.011719 25.546875 48.105469 25.570312 48.207031 25.589844 C 48.402344 25.628906 48.597656 25.667969 48.792969 25.707031 C 50.210938 26 50.210938 26 50.507812 26.355469 C 50.667969 26.632812 50.597656 26.878906 50.355469 27.136719 C 49.929688 27.390625 49.441406 27.492188 48.804688 27.515625 C 47.742188 27.535156 46.890625 27.46875 46.074219 27.074219 C 45.867188 26.964844 45.789062 26.914062 45.75 26.761719 C 45.78125 26.648438 45.78125 26.648438 45.960938 26.550781 C 46.167969 26.527344 46.167969 26.527344 46.414062 26.550781 C 46.535156 26.621094 46.535156 26.621094 46.660156 26.707031 C 47.027344 26.949219 47.5 27.046875 48.082031 27.089844 C 48.574219 27.101562 49.0625 27.050781 49.503906 26.933594 C 49.710938 26.800781 49.710938 26.800781 49.6875 26.652344 C 49.566406 26.460938 49.363281 26.375 49.050781 26.265625 C 48.664062 26.167969 48.257812 26.089844 47.859375 26.003906 C 47.230469 25.871094 46.6875 25.714844 46.234375 25.449219 C 46.050781 25.1875 46.058594 24.9375 46.28125 24.683594 C 47.335938 24.09375 49.054688 24.089844 50.230469 24.605469 Z M 50.230469 24.605469 "/>
<path style=" stroke:none;fill-rule:nonzero;fill:rgb(100%,92.941177%,31.764707%);fill-opacity:1;" d="M 85.804688 30.679688 C 85.875 30.679688 85.945312 30.683594 86.019531 30.683594 C 86.183594 30.839844 86.210938 30.902344 86.121094 31.078125 C 86.074219 31.136719 86.027344 31.199219 85.976562 31.257812 C 85.953125 31.289062 85.925781 31.324219 85.898438 31.355469 C 85.8125 31.464844 85.722656 31.574219 85.632812 31.683594 C 85.570312 31.761719 85.511719 31.839844 85.449219 31.917969 C 85.316406 32.082031 85.183594 32.246094 85.050781 32.414062 C 84.828125 32.695312 84.605469 32.976562 84.386719 33.257812 C 84.347656 33.308594 84.3125 33.355469 84.273438 33.40625 C 84.199219 33.5 84.125 33.59375 84.050781 33.691406 C 84.015625 33.738281 83.980469 33.785156 83.941406 33.832031 C 83.90625 33.878906 83.867188 33.925781 83.832031 33.972656 C 83.726562 34.105469 83.625 34.238281 83.523438 34.371094 C 83.492188 34.410156 83.460938 34.449219 83.429688 34.492188 C 83.214844 34.765625 83.214844 34.765625 83.113281 34.816406 C 82.839844 34.824219 82.839844 34.824219 82.566406 34.816406 C 82.539062 34.800781 82.507812 34.785156 82.476562 34.769531 C 82.511719 34.460938 82.683594 34.210938 82.914062 33.925781 C 82.949219 33.882812 82.984375 33.835938 83.023438 33.792969 C 83.136719 33.648438 83.253906 33.503906 83.367188 33.363281 C 83.488281 33.214844 83.605469 33.066406 83.722656 32.921875 C 83.800781 32.820312 83.878906 32.722656 83.957031 32.625 C 84.191406 32.332031 84.421875 32.042969 84.644531 31.746094 C 84.683594 31.695312 84.683594 31.695312 84.722656 31.644531 C 84.835938 31.492188 84.953125 31.339844 85.066406 31.183594 C 85.128906 31.105469 85.128906 31.105469 85.1875 31.023438 C 85.222656 30.980469 85.253906 30.933594 85.289062 30.886719 C 85.417969 30.738281 85.484375 30.6875 85.804688 30.679688 Z M 85.804688 30.679688 "/>
<path style=" stroke:none;fill-rule:nonzero;fill:rgb(100%,92.941177%,31.764707%);fill-opacity:1;" d="M 42.625 24.257812 C 43.019531 24.273438 43.148438 24.3125 43.417969 24.460938 C 43.570312 24.625 43.621094 24.757812 43.621094 24.9375 C 43.621094 24.984375 43.621094 25.03125 43.621094 25.078125 C 43.621094 25.128906 43.621094 25.179688 43.621094 25.230469 C 43.621094 25.304688 43.621094 25.304688 43.621094 25.386719 C 43.621094 25.496094 43.621094 25.601562 43.617188 25.710938 C 43.617188 25.878906 43.617188 26.042969 43.617188 26.207031 C 43.617188 26.316406 43.617188 26.421875 43.617188 26.527344 C 43.613281 26.574219 43.613281 26.625 43.613281 26.675781 C 43.605469 27.40625 43.605469 27.40625 43.417969 27.503906 C 43.144531 27.507812 43.144531 27.507812 42.875 27.503906 C 42.71875 27.421875 42.769531 27.324219 42.769531 27.214844 C 42.769531 27.136719 42.769531 27.136719 42.769531 27.058594 C 42.769531 27.003906 42.769531 26.945312 42.769531 26.890625 C 42.769531 26.769531 42.765625 26.652344 42.765625 26.535156 C 42.761719 26.351562 42.761719 26.164062 42.757812 25.976562 C 42.757812 25.796875 42.757812 25.621094 42.753906 25.441406 C 42.753906 25.382812 42.753906 25.328125 42.753906 25.273438 C 42.757812 24.945312 42.757812 24.945312 42.464844 24.671875 C 42.386719 24.632812 42.3125 24.597656 42.238281 24.558594 C 42.203125 24.425781 42.203125 24.425781 42.238281 24.320312 C 42.328125 24.273438 42.328125 24.273438 42.625 24.257812 Z M 42.625 24.257812 "/>
<path style=" stroke:none;fill-rule:nonzero;fill:rgb(100%,92.941177%,31.764707%);fill-opacity:1;" d="M 87.109375 31.730469 C 87.558594 31.714844 87.808594 31.757812 88.199219 31.871094 C 88.296875 31.902344 88.398438 31.929688 88.5 31.960938 C 88.601562 31.992188 88.707031 32.023438 88.8125 32.054688 C 88.917969 32.085938 89.023438 32.117188 89.128906 32.148438 C 89.894531 32.378906 89.894531 32.378906 90.105469 32.488281 C 90.089844 32.621094 90.066406 32.699219 89.886719 32.796875 C 89.65625 32.871094 89.429688 32.941406 89.199219 33.011719 C 89.136719 33.03125 89.070312 33.050781 89.007812 33.074219 C 88.792969 33.140625 88.574219 33.207031 88.359375 33.269531 C 88.289062 33.292969 88.214844 33.316406 88.144531 33.335938 C 87.625 33.488281 87.625 33.488281 87.285156 33.476562 C 87.226562 33.464844 87.167969 33.453125 87.109375 33.441406 C 87.046875 33.332031 87.046875 33.332031 87.019531 33.203125 C 87.195312 33.089844 87.390625 33.023438 87.632812 32.957031 C 87.695312 32.9375 87.761719 32.917969 87.828125 32.898438 C 87.960938 32.863281 88.097656 32.824219 88.234375 32.785156 C 88.328125 32.757812 88.328125 32.757812 88.425781 32.730469 C 88.484375 32.714844 88.542969 32.699219 88.605469 32.679688 C 88.761719 32.636719 88.761719 32.636719 88.835938 32.539062 C 88.773438 32.527344 88.710938 32.511719 88.648438 32.5 C 88.328125 32.429688 88.027344 32.347656 87.722656 32.261719 C 87.664062 32.246094 87.605469 32.230469 87.546875 32.214844 C 87.277344 32.136719 87.128906 32.089844 87.019531 31.9375 C 87.019531 31.824219 87.019531 31.824219 87.109375 31.730469 Z M 87.109375 31.730469 "/>
<path style=" stroke:none;fill-rule:nonzero;fill:rgb(100%,92.941177%,31.764707%);fill-opacity:1;" d="M 81.839844 31.730469 C 81.933594 31.777344 81.933594 31.777344 81.960938 31.890625 C 81.933594 32.015625 81.933594 32.015625 81.78125 32.09375 C 81.714844 32.113281 81.644531 32.136719 81.574219 32.15625 C 81.5 32.179688 81.425781 32.203125 81.351562 32.230469 C 81.273438 32.253906 81.195312 32.277344 81.113281 32.300781 C 81 32.335938 81 32.335938 80.882812 32.371094 C 80.328125 32.539062 80.328125 32.539062 80.113281 32.539062 C 80.304688 32.644531 80.480469 32.714844 80.730469 32.777344 C 80.792969 32.796875 80.855469 32.816406 80.921875 32.832031 C 81.058594 32.871094 81.195312 32.90625 81.328125 32.941406 C 81.820312 33.078125 81.820312 33.078125 81.9375 33.234375 C 81.933594 33.34375 81.933594 33.34375 81.828125 33.433594 C 81.660156 33.488281 81.660156 33.488281 81.453125 33.476562 C 81.167969 33.433594 80.945312 33.371094 80.691406 33.292969 C 80.59375 33.265625 80.496094 33.234375 80.398438 33.203125 C 80.300781 33.171875 80.199219 33.140625 80.097656 33.109375 C 79.996094 33.078125 79.898438 33.050781 79.792969 33.015625 C 79.050781 32.789062 79.050781 32.789062 78.84375 32.679688 C 78.832031 32.570312 78.832031 32.570312 78.933594 32.441406 C 79.160156 32.347656 79.40625 32.277344 79.660156 32.203125 C 79.730469 32.183594 79.800781 32.164062 79.875 32.140625 C 80.011719 32.101562 80.152344 32.0625 80.292969 32.023438 C 80.445312 31.976562 80.59375 31.929688 80.742188 31.882812 C 81.121094 31.765625 81.386719 31.695312 81.839844 31.730469 Z M 81.839844 31.730469 "/>
<path style=" stroke:none;fill-rule:nonzero;fill:rgb(100%,92.941177%,31.764707%);fill-opacity:1;" d="M 43.417969 22.800781 C 43.589844 22.851562 43.589844 22.851562 43.691406 22.941406 C 43.730469 23.136719 43.71875 23.207031 43.507812 23.371094 C 43.339844 23.386719 43.339844 23.386719 43.144531 23.386719 C 43.082031 23.382812 43.019531 23.382812 42.953125 23.382812 C 42.78125 23.371094 42.78125 23.371094 42.601562 23.273438 C 42.550781 22.988281 42.550781 22.988281 42.703125 22.851562 C 42.953125 22.777344 43.136719 22.78125 43.417969 22.800781 Z M 43.417969 22.800781 "/>
</g>
</svg>
